<?xml version="1.0" encoding="utf-8"?>
<!-- Generator: Adobe Illustrator 16.0.0, SVG Export Plug-In . SVG Version: 6.00 Build 0)  -->
<!DOCTYPE svg PUBLIC "-//W3C//DTD SVG 1.1//EN" "http://www.w3.org/Graphics/SVG/1.1/DTD/svg11.dtd">
<svg version="1.1" id="Layer_1" xmlns="http://www.w3.org/2000/svg" xmlns:xlink="http://www.w3.org/1999/xlink" x="0px" y="0px"
	 width="117px" height="88px" viewBox="0 0 117 88" enable-background="new 0 0 117 88" xml:space="preserve">
<g>
	<polygon fill="#FFFFFF" points="9.135,36.229 73.066,49.175 113.654,19.968 113.868,28.13 73.566,59.696 9.298,46.311 	"/>
	<polygon fill="#FFFFFF" points="11.394,35.333 38.282,40.729 53.04,31.733 48.113,26.563 37.795,31.641 17.325,28.202 	"/>
	<path fill="#FFFFFF" d="M17.838,27.883c0,0,19.675,3.44,20.166,3.277c0.492-0.162,9.515-4.78,9.515-4.78l-19.323-3.536
		L17.838,27.883z"/>
	<polygon fill="#FFFFFF" points="48.933,34.918 43.929,41.918 72.9,47.696 86.998,37.99 82.016,32.953 71.535,39.176 	"/>
	<path fill="#FFFFFF" d="M49.811,34.647l21.653,3.944l9.931-5.902c0,0-20.552-4.274-21.067-4.312
		C59.847,28.34,49.811,34.647,49.811,34.647z"/>
	<polygon fill="#FFFFFF" points="32.677,23.285 35.527,19.303 55.345,22.393 63.869,17.386 68.663,22.393 56.518,29.531 
		55.133,30.279 51.795,29.634 48.109,26.016 	"/>
	<path fill="#FFFFFF" d="M36.183,19.006l19.028,2.958c0,0,8.378-4.78,8.058-4.78c-0.321,0-17.39-2.912-17.39-2.912L36.183,19.006z"
		/>
	<polygon fill="#FFFFFF" points="51.403,11.419 48.882,14.5 64.135,17.002 67.546,20.6 70.475,21.222 81.651,14.628 77.4,9.82 
		70.261,14.509 	"/>
	<polygon fill="#FFFFFF" points="52.517,11.125 60.53,7.347 76.654,9.81 70.164,13.946 	"/>
	<polygon fill="#FFFFFF" points="65.961,24.935 63.559,28.477 82.285,32.402 86.235,36.573 89.155,36.862 101.238,28.375 
		96.189,22.959 88.359,28.67 	"/>
	<polygon fill="#FFFFFF" points="66.554,24.558 75.087,19.38 95.719,22.786 88.26,28.127 	"/>
	<polygon fill="#FFFFFF" points="80.964,15.787 78.535,19.431 96.203,22.466 99.985,26.436 102.842,27.145 112.614,20.188 
		108.047,14.834 101.021,19.081 	"/>
	<polygon fill="#FFFFFF" points="81.525,15.516 87.885,11.733 107.392,14.792 100.977,18.628 	"/>
	<polygon fill="#FFFFFF" points="2.06,59.398 95.595,68.995 110.511,31.713 112.018,30.289 112.298,39.5 96.789,81.201 
		2.011,72.224 	"/>
	<polygon fill="#FFFFFF" points="95.258,67.751 67.157,64.782 69.771,59.883 73.334,60.757 77.499,57.357 91.256,58.34 
		96.775,47.413 101.315,51.951 	"/>
	<path fill="#FFFFFF" d="M78.35,56.637c0.296,0,12.604,0.94,12.604,0.94l5.083-10.307l-4.984-0.743L78.35,56.637z"/>
	<polygon fill="#FFFFFF" points="95.384,43.272 92.041,46.024 96.775,46.625 100.329,49.878 102.13,50.151 107.432,37.152 
		104.948,35.542 100.591,39.619 98.569,43.42 	"/>
	<polygon fill="#FFFFFF" points="4.852,58.373 9.939,51.828 30.697,53.898 32.474,52.214 39.711,53.696 33.839,61.435 	"/>
	<polygon fill="#FFFFFF" points="11.136,51.065 15.109,48.563 31.353,51.838 30.229,53.056 	"/>
	<polygon fill="#FFFFFF" points="40.462,53.819 34.709,61.505 66.165,64.812 69.022,59.633 	"/>
	<polygon fill="#FFFFFF" points="107.698,36.264 109.504,32.383 105.799,35.216 	"/>
	<polygon fill="#FFFFFF" points="96.104,42.75 98.201,42.806 99.672,39.987 	"/>
</g>
</svg>
